<svg height='100px' width='100px'  fill="#000000" xmlns="http://www.w3.org/2000/svg" xmlns:xlink="http://www.w3.org/1999/xlink" viewBox="0 0 61 60" version="1.1" x="0px" y="0px"><title>Furniture ISO - Outline - 018 - Table</title><desc>Created with Sketch.</desc><g stroke="none" stroke-width="1" fill="none" fill-rule="evenodd"><g fill-rule="nonzero" fill="#000000"><path d="M60.09473,18.95264 C60.0664798,18.909797 60.0347992,18.8693175 60,18.8316 L60,16 C59.9944021,15.9135995 59.9772183,15.8283431 59.94891,15.74652 C60.0739177,15.2952997 59.864256,14.8184044 59.44726,14.60547 L30.44726,0.10547 C30.42548,0.0946 30.40186,0.09631 30.3797,0.08716 C30.3160892,0.0625098486 30.2500579,0.0446311384 30.1827,0.03382 C30.0629812,0.00208104516 29.9370588,0.00208104516 29.81734,0.03382 C29.7499821,0.0446311384 29.6839508,0.0625098486 29.62034,0.08716 C29.59818,0.09632 29.57456,0.09461 29.55277,0.10547 L0.55277,14.60547 C0.135745691,14.8184373 -0.0738973869,15.2953973 0.05118,15.74664 C0.0228472055,15.8284193 0.00563314409,15.9136353 -1.24216836e-15,16 L-1.24216836e-15,45 C-8.47533706e-05,45.3788065 0.213910123,45.7251326 0.55273,45.89453 L4.55273,47.89453 C4.56146,47.89886 4.57165,47.89697 4.58044,47.90106 C4.84461047,48.0329766 5.15543953,48.0329766 5.41961,47.90106 C5.4284,47.89697 5.43861,47.89886 5.44726,47.89453 L9.44726,45.89453 C9.78608376,45.7251354 10.0000829,45.3788087 10,45 L10,41.11816 L25,48.61816 L25,57 C24.9999152,57.3788065 25.2139101,57.7251326 25.55273,57.89453 L29.55273,59.89453 C29.56146,59.89886 29.57165,59.89697 29.58044,59.90106 C29.8446105,60.0329766 30.1554395,60.0329766 30.41961,59.90106 C30.4284,59.89697 30.43861,59.89886 30.44726,59.89453 L34.44726,57.89453 C34.7860838,57.7251354 35.0000829,57.3788087 35,57 L35,48.61816 L50,41.11816 L50,45 C49.9999152,45.3788065 50.2139101,45.7251326 50.55273,45.89453 L54.55273,47.89453 C54.56146,47.89886 54.57165,47.89697 54.58044,47.90106 C54.8446105,48.0329766 55.1554395,48.0329766 55.41961,47.90106 C55.4284,47.89697 55.43861,47.89886 55.44726,47.89453 L59.44726,45.89453 C59.7860838,45.7251354 60.0000829,45.3788087 60,45 L60,20 L59.99707,19.98541 C60.2215635,19.6870326 60.2593146,19.2878091 60.09473,18.95264 Z M35,32.61816 L45.05908,27.58862 L50.5,30.30908 L50.5,32 C50.5029866,32.0245345 50.5078848,32.0487983 50.51465,32.07257 C50.5178571,32.1073673 50.524773,32.1417223 50.53528,32.17505 C50.5482675,32.204687 50.5641974,32.2329453 50.58283,32.2594 C50.597684,32.2869107 50.6152048,32.3128955 50.63514,32.33698 C50.6609467,32.3621557 50.6894525,32.384407 50.72014,32.40333 C50.7377348,32.4193845 50.7565257,32.4340769 50.77635,32.44728 L53.38184,33.75 L35,42.94092 L35,32.61816 Z M50.5,29.19091 L46.17725,27.02953 L50.5,24.86816 L50.5,29.19091 Z M54,32.94091 L51.5,31.69091 L51.5,24.36816 L54,23.11816 L54,32.94091 Z M30.5,32.63183 L30.5,30.30908 L58,16.55908 L58,18.88183 L30.5,32.63183 Z M25,42.94092 L6.61816,33.75 L9.22363,32.44727 C9.24345426,32.4340669 9.26224516,32.4193745 9.27984,32.40332 C9.31052751,32.384397 9.33903333,32.3621457 9.36484,32.33697 C9.38477519,32.3128855 9.40229601,32.2869007 9.41715,32.25939 C9.43578259,32.2329353 9.45171245,32.204677 9.4647,32.17504 C9.47520702,32.1417123 9.48212294,32.1073573 9.48533,32.07256 C9.49210142,32.0487921 9.49700633,32.0245317 9.5,32 L9.5,30.30908 L14.94092,27.58862 L25,32.61816 L25,42.94092 Z M8.5,24.36816 L8.5,31.69091 L6,32.94091 L6,23.11816 L8.5,24.36816 Z M9.5,24.86816 L13.82275,27.02954 L9.5,29.19092 L9.5,24.86816 Z M2,18.88184 L2,16.55908 L29.5,30.30908 L29.5,32.63183 L2,18.88184 Z M30,2.11816 L57.32275,15.77954 L30,29.44092 L2.67725,15.77954 L30,2.11816 Z M2,21.11816 L4,22.11816 L4,45.38184 L2,44.38184 L2,21.11816 Z M8,44.38184 L6,45.38184 L6,39.11816 L8,40.11816 L8,44.38184 Z M6,36.88184 L6,34.55908 L25,44.05908 L25,46.38183 L6,36.88184 Z M27,33.61817 L29,34.61817 L29,57.38184 L27,56.38184 L27,33.61817 Z M31,57.38184 L31,34.61816 L33,33.61816 L33,56.38184 L31,57.38184 Z M35,44.05909 L54,34.55909 L54,36.88184 L35,46.38184 L35,44.05909 Z M52,40.11817 L54,39.11817 L54,45.38184 L52,44.38184 L52,40.11817 Z M56,45.38184 L56,22.11816 L58,21.11816 L58,44.38184 L56,45.38184 Z"></path></g></g></svg>